<mxfile host="app.diagrams.net" modified="2024-06-01T06:23:17.172Z" agent="Mozilla/5.0 (Windows NT 10.0; Win64; x64) AppleWebKit/537.36 (KHTML, like Gecko) Chrome/125.0.0.0 Safari/537.36" version="24.4.13" etag="V7Ub67H66N97EOm8WFZp" type="github">
  <diagram name="Page-1" id="aXE0E8r86rlbe8JKHEEj">
    <mxGraphModel>
      <root>
        <mxCell id="0" />
        <mxCell id="1" parent="0" />
      </root>
    </mxGraphModel>
  </diagram>
</mxfile>
